<svg xmlns="http://www.w3.org/2000/svg" xmlns:svg="http://www.w3.org/2000/svg" xmlns:xlink="http://www.w3.org/1999/xlink" id="svg2" width="86" height="86" x="0" y="0" enable-background="new 0 0 86 86" version="1.1" viewBox="0 0 86 86" xml:space="preserve"><metadata id="metadata35"/><defs id="defs33"><marker id="Arrow2Lend" orient="auto" refX="0" refY="0" style="overflow:visible"><path id="path4180" d="M 8.7185878,4.0337352 L -2.2072895,0.016013256 L 8.7185884,-4.0017078 C 6.9730900,-1.6296469 6.9831476,1.6157441 8.7185878,4.0337352 z" transform="scale(1.1) rotate(180) translate(1,0)" style="fill-rule:evenodd;stroke-width:.625;stroke-linejoin:round;stroke:#fff;stroke-opacity:1;fill:#fff;fill-opacity:1"/></marker><linearGradient id="linearGradient4143"><stop style="stop-color:#00bfff;stop-opacity:1" id="stop4145" offset="0"/><stop style="stop-color:#00bfff;stop-opacity:0" id="stop4147" offset="1"/></linearGradient><linearGradient id="linearGradient4149" x1=".118" x2="93.073" y1="-.316" y2="89.328" gradientUnits="userSpaceOnUse" xlink:href="#linearGradient4143"/><marker id="Arrow2Lend-5" orient="auto" refX="0" refY="0" style="overflow:visible"><path id="path4180-2" d="M 8.7185878,4.0337352 -2.2072895,0.01601326 8.7185884,-4.0017078 c -1.7454984,2.3720609 -1.7354408,5.6174519 -6e-7,8.035443 z" transform="matrix(-1.1,0,0,-1.1,-1.1,0)" style="fill:#fff;fill-opacity:1;fill-rule:evenodd;stroke:#fff;stroke-width:.625;stroke-linejoin:round;stroke-opacity:1"/></marker></defs><g id="Layer_1" transform="matrix(-1,0,0,-1,86.000003,86)"><linearGradient id="SVGID_1_" x1="85.179" x2="12.785" y1=".806" y2="73.201" gradientUnits="userSpaceOnUse"><stop style="stop-color:#828282" id="stop7" offset="0"/><stop style="stop-color:#dadada" id="stop9" offset="1"/></linearGradient><path id="path11" d="m 85.603,1.819 c 0,-0.785 -0.636,-1.422 -1.422,-1.422 l -82.459,0 C 0.937,0.397 0.3,1.034 0.3,1.819 l 0,41.23 C 0.3,66.605 19.396,85.7 42.951,85.7 l 41.23,0 c 0.785,0 1.422,-0.696 1.422,-1.481 l 0,-82.4 z" style="fill:url(#linearGradient4149);fill-opacity:1"/><path style="fill:none;fill-rule:evenodd;stroke:#fff;stroke-width:5.80000019;stroke-linecap:round;stroke-linejoin:round;stroke-miterlimit:4;stroke-dasharray:none;stroke-opacity:1" id="path4252" d="M 76.032183,15.684012 55.798451,20.96634 47.67634,76.350806 32.836379,64.2329 29.658738,28.081428 12.993602,27.527883"/><path style="fill:none;fill-rule:evenodd;stroke:#fff;stroke-width:1px;stroke-linecap:butt;stroke-linejoin:miter;stroke-opacity:1;marker-end:url(#Arrow2Lend)" id="path4153" d="M 81.490699,1.8037217 74.146976,79.106073"/><path style="fill:none;fill-rule:evenodd;stroke:#fff;stroke-width:1px;stroke-linecap:butt;stroke-linejoin:miter;stroke-opacity:1;marker-end:url(#Arrow2Lend-5)" id="path4153-8" d="M 84.800512,6.8578582 4.1483885,10.207627"/><path style="fill:none;fill-opacity:1;stroke:#fff;stroke-width:1.88624406;stroke-opacity:.2795389" id="rect3381-0" d="m 30.9711,47.895027 c 0.999434,0 1.804032,-0.804596 1.804032,-1.80403 l 0,-4.58524 c 2.333564,-0.579298 4.579605,-1.511669 6.68994,-2.781213 l 3.23222,3.232219 c 0.706705,0.706705 1.849003,0.706705 2.555709,0 l 5.863093,-5.863092 c 0.706707,-0.706707 0.706707,-1.849002 0,-2.55571 l -3.232219,-3.232223 c 1.259609,-2.104171 2.133028,-4.375681 2.706045,-6.689938 l 4.585242,0 c 0.999432,0 1.804028,-0.804596 1.804028,-1.804022 l 0,-8.268471 c 0,-0.999434 -0.804596,-1.804029 -1.804028,-1.804029 l -4.510074,0 C 50.085885,9.4036329 49.154487,7.1614479 47.883875,5.0493375 l 3.232219,-3.232221 c 0.706707,-0.7067021 0.706707,-1.84900207 0,-2.55571177 L 45.253001,-6.6016872 c -0.706706,-0.706704 -1.849004,-0.706704 -2.555709,0 l -3.23222,3.2322189 c -2.119557,-1.2783434 -4.355967,-2.1265328 -6.68994,-2.7060435 l 0,-4.5852412 c 0,-0.999434 -0.804598,-1.804031 -1.804032,-1.804031 l -8.26847,0 c -0.999426,0 -1.804023,0.804597 -1.804023,1.804029 l 0,4.5852432 c -2.338962,0.5764173 -4.57449,1.4368785 -6.68994,2.7060435 l -3.232221,-3.2322189 c -0.706708,-0.706704 -1.8490023,-0.706704 -2.5557101,0 l -5.8630938,5.86309193 c -0.7067039,0.7067097 -0.7067039,1.84900967 0,2.55571177 L 5.789863,5.0493375 C 4.5176818,7.1576259 3.589282,9.4178079 3.0086507,11.739276 l -4.5852428,0 c -0.9994317,2e-6 -1.8040287,0.804597 -1.8040287,1.804031 l 0,8.268462 c 0,0.999435 0.804597,1.804031 1.8040287,1.804031 l 4.5852428,0 c 0.5758043,2.319482 1.523459,4.590507 2.7812123,6.689938 l -3.2322209,3.232223 c -0.7067039,0.706708 -0.7067039,1.849003 0,2.55571 l 5.8630938,5.863092 c 0.7067078,0.706705 1.8490021,0.706705 2.5557101,0 l 3.232221,-3.232219 c 2.112288,1.267848 4.365442,2.206015 6.68994,2.781213 l 0,4.58524 c 0,0.999434 0.804597,1.80403 1.804023,1.80403 l 8.26847,0 z M 27.137541,29.103058 C 24.214534,29.180658 21.233608,28.192171 18.94424,26.021175 14.365509,21.67918 14.151244,14.438812 18.493233,9.8600779 22.824509,5.2926495 30.071799,5.0937714 34.654329,9.4090719 c 4.578731,4.3419941 4.792998,11.5823631 0.451006,16.1610961 -2.170999,2.289364 -5.044789,3.455314 -7.967794,3.532887 z"/></g></svg>